<?xml version="1.0" standalone="no"?>
<!DOCTYPE svg PUBLIC "-//W3C//DTD SVG 20010904//EN"
 "http://www.w3.org/TR/2001/REC-SVG-20010904/DTD/svg10.dtd">
<svg version="1.0" xmlns="http://www.w3.org/2000/svg"
 width="280.000000pt" height="280.000000pt" viewBox="0 0 280.000000 280.000000"
 preserveAspectRatio="xMidYMid meet">
<metadata>
Created by potrace 1.11, written by Peter Selinger 2001-2013
</metadata>
<g transform="translate(0.000000,280.000000) scale(0.100000,-0.100000)"
fill="#000000" stroke="none">
<path d="M2205 2178 c-27 -57 -91 -191 -143 -298 -52 -107 -109 -226 -127
-265 -18 -38 -70 -146 -115 -240 -45 -93 -110 -228 -145 -300 -34 -71 -104
-214 -154 -318 -50 -103 -93 -198 -96 -210 -5 -20 6 -27 112 -75 65 -29 121
-52 125 -52 4 0 23 35 44 78 20 42 75 156 122 252 46 96 101 211 122 255 43
92 135 282 244 508 42 86 96 199 120 250 24 50 76 159 115 241 40 82 70 153
69 158 -3 8 -229 118 -241 118 -1 0 -25 -46 -52 -102z"/>
<path d="M495 1494 c-27 -7 -53 -13 -57 -14 -3 0 -31 -20 -61 -45 -55 -44
-134 -151 -161 -217 l-15 -34 84 -38 c46 -21 88 -36 94 -34 5 1 24 25 43 52
41 61 76 87 122 93 44 4 80 -13 166 -82 117 -94 153 -110 245 -109 61 0 91 5
126 21 79 38 152 120 213 241 l27 53 -86 39 c-47 22 -89 40 -93 40 -4 -1 -22
-24 -40 -53 -79 -125 -154 -130 -285 -20 -125 106 -214 136 -322 107z"/>
</g>
</svg>
