<?xml version="1.0" standalone="no"?>
<!DOCTYPE svg PUBLIC "-//W3C//DTD SVG 20010904//EN"
 "http://www.w3.org/TR/2001/REC-SVG-20010904/DTD/svg10.dtd">
<svg version="1.0" xmlns="http://www.w3.org/2000/svg"
 width="512.000000pt" height="512.000000pt" viewBox="0 0 512.000000 512.000000"
 preserveAspectRatio="xMidYMid meet">
<metadata>
Created by potrace 1.11, written by Peter Selinger 2001-2013
</metadata>
<g transform="translate(0.000000,512.000000) scale(0.100000,-0.100000)"
fill="#000000" stroke="none">
<path d="M0 2560 l0 -2560 2560 0 2560 0 0 2560 0 2560 -2560 0 -2560 0 0
-2560z m4400 1553 c0 -4 -264 -708 -587 -1565 l-588 -1558 -127 0 c-73 0 -128
4 -128 9 0 6 259 697 576 1538 317 840 581 1540 586 1556 l10 27 129 0 c71 0
129 -3 129 -7z m-3060 -1118 c56 -20 135 -69 261 -161 130 -95 174 -116 250
-116 116 0 178 52 251 209 22 48 42 89 43 91 1 1 43 -17 93 -40 l91 -43 -33
-75 c-71 -163 -151 -257 -269 -315 -87 -43 -160 -56 -246 -44 -85 12 -162 52
-301 155 -157 116 -200 137 -275 138 -118 0 -202 -71 -266 -224 -17 -41 -32
-76 -33 -77 -3 -4 -169 67 -178 76 -5 4 18 58 48 121 87 177 199 279 349 317
58 14 155 9 215 -12z"/>
</g>
</svg>
